<?xml version="1.0" encoding="UTF-8"?>
<!-- Generator: Adobe Illustrator 16.0.3, SVG Export Plug-In . SVG Version: 6.00 Build 0)  -->
<!DOCTYPE svg PUBLIC "-//W3C//DTD SVG 1.1//EN" "http://www.w3.org/Graphics/SVG/1.1/DTD/svg11.dtd">
<svg version="1.1" id="Warstwa_1" xmlns="http://www.w3.org/2000/svg" xmlns:xlink="http://www.w3.org/1999/xlink" x="0px" y="0px" width="30px" height="30px" viewBox="0 0 30 30" enable-background="new 0 0 30 30" xml:space="preserve" allow-background-captures="true">
<g id="DO_NOT_EDIT_-_BOUNDING_BOX">
	<rect id="BOUNDING_BOX" fill="none" width="30" height="30"/>
</g>
<g id="PLACE_YOUR_GRAPHIC_HERE">
	<path opacity="0.3" enable-background="new    " d="M14.168,28.657c-3.541-0.179-6.912-1.521-9.49-3.771   c-0.212-0.187-0.36-0.425-0.428-0.682c-0.278-0.076-0.53-0.225-0.721-0.436c-2.064-2.247-3.286-4.994-3.53-7.948   c-0.022-0.271,0.042-0.542,0.182-0.776c-0.149-0.229-0.224-0.494-0.215-0.764c0.113-3.143,1.317-6.068,3.482-8.467   C2.659,4.682,2.986,3.165,4.192,2.403l3.185-2.011c0.452-0.284,0.975-0.434,1.516-0.434c0.893,0,1.722,0.407,2.223,1.089   c0.049,0.065,0.093,0.132,0.135,0.201c0.942-0.22,1.918-0.356,2.917-0.406c0.027-0.001,0.056-0.003,0.083-0.003   c0.265,0,0.524,0.065,0.75,0.187c0.226-0.122,0.485-0.187,0.75-0.187c0.026,0,0.056,0,0.082,0.001   c0.856,0.042,1.701,0.154,2.526,0.327c0.027-0.041,0.054-0.082,0.085-0.12c0.503-0.684,1.334-1.091,2.225-1.091   c0.539,0,1.063,0.149,1.513,0.433l3.189,2.012c1.107,0.7,1.474,2.039,0.912,3.13c2.312,2.418,3.634,5.474,3.75,8.747   c0.012,0.27-0.063,0.537-0.214,0.763c0.14,0.235,0.205,0.505,0.182,0.776c-0.22,2.652-1.251,5.179-2.984,7.31   c-0.179,0.217-0.418,0.379-0.69,0.468c-0.049,0.263-0.178,0.51-0.386,0.715c-2.656,2.604-6.243,4.146-10.107,4.344   c-0.027,0-0.056,0.003-0.082,0.003c-0.264,0-0.523-0.064-0.75-0.189c-0.226,0.125-0.484,0.189-0.75,0.189   C14.224,28.657,14.195,28.657,14.168,28.657z"/>
	<path fill="#FFFFFF" d="M3.936,0.341C3.757,0.335,3.583,0.315,3.401,0.315c-0.18,0-0.356,0.02-0.534,0.025H3.936z"/>
	<path opacity="0.15" enable-background="new    " d="M14.168,30.043c-3.541-0.179-6.912-1.521-9.49-3.771   c-0.212-0.187-0.36-0.425-0.428-0.682c-0.278-0.076-0.53-0.225-0.721-0.436c-2.064-2.247-3.286-4.994-3.53-7.948   c-0.022-0.272,0.042-0.542,0.182-0.775c-0.149-0.229-0.224-0.494-0.215-0.765c0.113-3.143,1.317-6.068,3.482-8.466   c-0.789-1.133-0.461-2.65,0.745-3.412l3.185-2.011c0.452-0.284,0.975-0.434,1.516-0.434c0.893,0,1.722,0.407,2.223,1.089   c0.049,0.065,0.093,0.133,0.135,0.201c0.942-0.22,1.918-0.356,2.917-0.406c0.027-0.001,0.056-0.003,0.083-0.003   c0.265,0,0.524,0.065,0.75,0.187c0.226-0.122,0.485-0.187,0.75-0.187c0.026,0,0.056,0,0.082,0.001   c0.856,0.043,1.701,0.154,2.526,0.327c0.027-0.041,0.054-0.082,0.085-0.121c0.503-0.684,1.334-1.091,2.225-1.091   c0.539,0,1.063,0.149,1.513,0.433l3.189,2.012c1.107,0.7,1.474,2.04,0.912,3.13c2.312,2.418,3.634,5.474,3.75,8.747   c0.012,0.271-0.063,0.537-0.214,0.765c0.14,0.233,0.205,0.503,0.182,0.775c-0.22,2.652-1.251,5.18-2.984,7.31   c-0.179,0.217-0.418,0.379-0.69,0.468c-0.049,0.263-0.178,0.509-0.386,0.715c-2.656,2.604-6.243,4.146-10.107,4.344   c-0.027,0-0.056,0.003-0.082,0.003c-0.264,0-0.523-0.064-0.75-0.189c-0.226,0.125-0.484,0.189-0.75,0.189   C14.224,30.043,14.195,30.043,14.168,30.043z"/>
	<path fill="#FFFFFF" d="M18.459,12.876c-1.034,0-1.79,1.174-1.79,3.381c0,2.106,0.701,3.306,1.779,3.306   c1.214,0,1.79-1.307,1.79-3.38C20.24,14.186,19.688,12.876,18.459,12.876z M25.396,15.713h3.142   c-0.125-3.486-1.78-6.607-4.369-8.812c0.263-0.068,0.505-0.205,0.672-0.43c0.371-0.505,0.23-1.193-0.315-1.537l-3.188-2.01   c-0.543-0.344-1.286-0.214-1.658,0.291c-0.255,0.348-0.252,0.778-0.059,1.127c-1.217-0.411-2.516-0.661-3.871-0.729v2.921h-1.499   V3.611c-1.572,0.08-3.076,0.394-4.459,0.927c0.338-0.37,0.4-0.905,0.091-1.326c-0.371-0.505-1.114-0.635-1.66-0.291L5.035,4.933   C4.491,5.277,4.35,5.966,4.721,6.47c0.247,0.337,0.662,0.489,1.072,0.461C5.757,6.962,5.724,6.989,5.689,7.019l2.209,2.058   l-1.063,0.979L4.653,8.023c-1.91,2.089-3.088,4.76-3.193,7.688h3.143V17.1H1.491c0.225,2.723,1.378,5.2,3.179,7.159l2.166-2.019   L7.9,23.22l-2.194,2.044c2.26,1.973,5.244,3.226,8.546,3.394v-2.896h1.5v2.896c3.584-0.181,6.79-1.646,9.101-3.911L22.655,22.7   l1.063-0.979l2.104,1.959c1.514-1.861,2.484-4.118,2.687-6.58h-3.113V15.713L25.396,15.713z M12.415,20.274H11.27v-7.085h-0.026   l-1.521,0.761l-0.23-0.835l1.915-0.95h1.01L12.415,20.274L12.415,20.274z M18.381,20.412c-1.712,0-2.868-1.484-2.896-4.167   c0-2.72,1.265-4.217,3.043-4.217c1.846,0,2.897,1.521,2.897,4.104C21.425,18.892,20.322,20.412,18.381,20.412z M22.654,9.855   l2.23-2.079l1.064,0.979l-2.23,2.08L22.654,9.855z"/>
	<path fill="#FFFFFF" d="M18.459,12.876c-1.034,0-1.79,1.174-1.79,3.381c0,2.106,0.701,3.306,1.779,3.306   c1.214,0,1.79-1.307,1.79-3.38C20.24,14.186,19.688,12.876,18.459,12.876z M25.396,15.713h3.142   c-0.125-3.486-1.78-6.607-4.369-8.812c0.263-0.068,0.505-0.205,0.672-0.43c0.371-0.505,0.23-1.193-0.315-1.537l-3.188-2.01   c-0.543-0.344-1.286-0.214-1.658,0.291c-0.255,0.348-0.252,0.778-0.059,1.127c-1.217-0.411-2.516-0.661-3.871-0.729v2.921h-1.499   V3.611c-1.572,0.08-3.076,0.394-4.459,0.927c0.338-0.37,0.4-0.905,0.091-1.326c-0.371-0.505-1.114-0.635-1.66-0.291L5.035,4.933   C4.491,5.277,4.35,5.966,4.721,6.47c0.247,0.337,0.662,0.489,1.072,0.461C5.757,6.962,5.724,6.989,5.689,7.019l2.209,2.058   l-1.063,0.979L4.653,8.023c-1.91,2.089-3.088,4.76-3.193,7.688h3.143V17.1H1.491c0.225,2.723,1.378,5.2,3.179,7.159l2.166-2.019   L7.9,23.22l-2.194,2.044c2.26,1.973,5.244,3.226,8.546,3.394v-2.896h1.5v2.896c3.584-0.181,6.79-1.646,9.101-3.911L22.655,22.7   l1.063-0.979l2.104,1.959c1.514-1.861,2.484-4.118,2.687-6.58h-3.113V15.713L25.396,15.713z M12.415,20.274H11.27v-7.085h-0.026   l-1.521,0.761l-0.23-0.835l1.915-0.95h1.01L12.415,20.274L12.415,20.274z M18.381,20.412c-1.712,0-2.868-1.484-2.896-4.167   c0-2.72,1.265-4.217,3.043-4.217c1.846,0,2.897,1.521,2.897,4.104C21.425,18.892,20.322,20.412,18.381,20.412z M22.654,9.855   l2.23-2.079l1.064,0.979l-2.23,2.08L22.654,9.855z"/>
</g>
</svg>