<?xml version="1.0" encoding="utf-8"?>
<!-- Generator: Adobe Illustrator 15.0.0, SVG Export Plug-In . SVG Version: 6.00 Build 0)  -->
<!DOCTYPE svg PUBLIC "-//W3C//DTD SVG 1.1//EN" "http://www.w3.org/Graphics/SVG/1.1/DTD/svg11.dtd">
<svg version="1.1" id="Layer_1" xmlns="http://www.w3.org/2000/svg" xmlns:xlink="http://www.w3.org/1999/xlink" x="0px" y="0px"
	 width="210px" height="210px" viewBox="0 0 210 210" enable-background="new 0 0 210 210" xml:space="preserve">
<path fill="#FF0000" d="M199.089,205.002H11.01c-0.922,0.015-1.858-0.185-2.743-0.624c-2.918-1.462-4.1-5.013-2.644-7.931
	l0.023,0.01L99.491,8.765c0.515-1.319,1.499-2.459,2.866-3.145c2.922-1.457,6.469-0.274,7.93,2.644L105,10.907l5.263-2.629
	l93.844,187.687c0.567,0.908,0.894,1.977,0.894,3.126C205,202.354,202.352,205.002,199.089,205.002L199.089,205.002z"/>
<polygon fill="#FFFF00" points="20.448,193.18 189.551,193.18 105,24.072 "/>
<path d="M92.322,142.311V70.913h25.356v71.398H92.322z M91.225,164.371c0-3.845,1.31-7.137,3.944-9.817
	c2.61-2.682,5.854-4.034,9.727-4.034c3.916,0,7.207,1.329,9.888,3.986c2.658,2.682,3.986,5.973,3.986,9.865
	c0,3.873-1.352,7.164-4.033,9.846c-2.682,2.681-5.973,4.033-9.841,4.033c-3.826,0-7.069-1.353-9.704-4.033
	C92.558,171.535,91.225,168.244,91.225,164.371L91.225,164.371z"/>
<path opacity="0.2" fill="#FFFFFF" d="M20.448,193.18h58.655c-0.794-6.062-1.211-12.239-1.211-18.513
	c0-42.599,18.845-80.868,48.79-107.229L105,24.072L20.448,193.18z"/>
</svg>
